<?xml version="1.0" standalone="no"?>
<!DOCTYPE svg PUBLIC "-//W3C//DTD SVG 20010904//EN"
 "http://www.w3.org/TR/2001/REC-SVG-20010904/DTD/svg10.dtd">
<svg version="1.0" xmlns="http://www.w3.org/2000/svg"
 width="1083.000000pt" height="450.000000pt" viewBox="0 0 1083.000000 450.000000"
 preserveAspectRatio="xMidYMid meet">
<metadata>
Created by potrace 1.15, written by Peter Selinger 2001-2017
</metadata>
<g transform="translate(0.000000,450.000000) scale(0.100000,-0.100000)"
fill="#000000" stroke="none">
<path d="M7725 4330 c-17 -19 -17 -20 0 -20 9 0 15 -5 13 -12 -3 -7 -31 -123
-64 -258 -32 -135 -64 -249 -71 -253 -15 -9 -18 -47 -3 -47 6 0 10 -42 10
-105 0 -100 -1 -105 -21 -105 -20 0 -21 -4 -15 -40 7 -42 -1 -90 -14 -90 -4 0
-10 23 -14 50 -5 41 -10 50 -26 50 -19 0 -20 -7 -20 -109 0 -63 -4 -112 -10
-116 -5 -3 -10 -15 -10 -26 0 -10 5 -19 10 -19 6 0 10 -32 10 -75 l0 -75 -35
0 -35 0 0 -315 0 -315 25 0 25 0 0 -195 0 -196 -96 -92 c-53 -51 -100 -93
-105 -95 -4 -2 -25 22 -45 52 -20 31 -40 56 -44 56 -4 0 -22 -22 -41 -50 -19
-27 -37 -50 -41 -50 -3 0 -54 51 -112 112 l-106 113 0 87 c0 81 2 88 20 88 13
0 20 7 20 20 0 12 7 20 16 20 10 0 14 7 12 23 -3 21 -7 22 -125 25 l-123 3 0
74 0 75 30 0 c28 0 30 3 30 35 l0 35 -350 0 -350 0 6 25 c13 52 4 189 -14 207
-18 18 -14 46 8 68 11 11 20 32 20 48 1 15 3 43 6 62 4 28 1 38 -16 48 -42 26
-117 -63 -135 -160 -6 -32 -11 -36 -43 -42 -107 -17 -152 2 -152 64 0 21 5 42
10 45 6 4 7 24 4 48 -11 70 -19 83 -50 82 -15 -1 -29 -6 -30 -11 -2 -5 -8 -29
-14 -53 -11 -42 -12 -43 -26 -22 -19 27 -44 27 -51 1 -5 -19 -23 -26 -35 -14
-4 3 0 20 7 38 15 36 6 56 -26 56 -12 0 -18 12 -23 49 -6 45 -4 51 24 79 35
36 38 63 10 102 l-21 29 21 11 c27 15 50 62 50 105 0 19 -3 35 -6 35 -3 0 -23
-15 -45 -32 -37 -30 -41 -31 -50 -15 -13 22 -29 13 -29 -18 0 -23 0 -23 -31 6
-37 34 -59 37 -59 8 0 -28 17 -60 47 -85 24 -21 25 -22 8 -54 -21 -41 -13 -73
25 -102 25 -18 30 -29 30 -64 0 -30 -6 -47 -18 -56 -10 -7 -30 -31 -45 -53
-22 -33 -27 -51 -27 -104 0 -35 -2 -62 -5 -59 -3 3 -15 53 -28 112 -12 58 -25
106 -29 106 -5 0 -19 0 -32 0 -16 0 -26 -7 -30 -22 -12 -39 -15 -98 -5 -104 5
-3 9 -21 9 -40 0 -65 -46 -85 -152 -68 -32 6 -37 11 -43 41 -11 62 -42 118
-81 148 -24 18 -39 25 -42 17 -2 -7 -10 -12 -18 -12 -11 0 -13 -8 -9 -32 3
-18 7 -50 9 -72 1 -22 10 -44 19 -51 21 -15 21 -37 2 -74 -8 -16 -15 -42 -15
-57 -2 -70 0 -121 5 -141 l5 -23 -365 0 -365 0 0 -35 c0 -32 2 -35 30 -35 l30
0 0 -75 0 -74 -107 -3 c-103 -3 -108 -4 -111 -25 -2 -16 2 -23 12 -23 9 0 16
-8 16 -19 0 -10 9 -21 20 -24 18 -5 20 -14 20 -86 0 -72 2 -81 18 -81 13 0 22
-12 31 -40 7 -22 21 -46 31 -53 20 -12 20 -28 20 -633 0 -605 -1 -622 -19
-627 -12 -3 -24 -20 -32 -46 l-12 -41 -60 0 c-57 0 -59 1 -53 23 3 12 6 154 6
315 0 305 1 312 42 275 20 -18 25 -4 5 16 -10 11 -7 12 13 6 19 -5 22 -4 14 4
-6 7 -20 13 -32 14 -29 2 -16 17 16 18 24 2 25 2 4 6 -13 3 -33 -2 -46 -10
-19 -13 -25 -13 -41 -1 -10 8 -30 14 -44 13 l-26 -1 25 -7 25 -7 -24 -13 c-17
-10 -20 -15 -11 -21 7 -4 10 -13 6 -19 -4 -6 6 -3 23 7 16 9 33 14 36 10 4 -3
3 -146 -1 -317 l-7 -311 -42 0 -43 0 -22 92 c-123 506 -285 876 -454 1036
l-56 53 0 70 c0 39 4 69 10 69 12 0 14 87 1 92 -12 4 -21 157 -10 163 12 8 11
82 -1 90 -7 4 -9 84 -6 231 4 211 3 224 -14 224 -10 0 -20 10 -24 23 -9 35
-41 72 -80 91 -32 15 -35 20 -39 74 -7 71 -17 121 -27 127 -13 8 -40 -90 -40
-142 0 -45 -2 -50 -36 -68 -23 -12 -44 -35 -57 -62 -12 -24 -26 -43 -32 -43
-7 0 -11 -73 -13 -222 -1 -130 -6 -226 -12 -232 -13 -13 -13 -86 0 -86 6 0 10
-35 10 -85 0 -69 -3 -85 -15 -85 -11 0 -15 -12 -15 -45 0 -25 5 -45 10 -45 6
0 10 -37 10 -92 l0 -92 -39 -46 c-61 -72 -129 -183 -182 -296 l-49 -104 -162
2 -163 3 -3 81 c-3 75 -1 82 18 87 16 4 20 13 20 46 0 33 -4 41 -18 41 -17 0
-19 14 -25 182 -6 156 -5 183 8 191 20 11 20 76 0 83 -15 6 -15 -8 -17 527 -1
152 -3 187 -15 187 -7 0 -18 12 -24 28 -14 38 -48 72 -88 89 -32 14 -33 15
-26 59 3 25 2 51 -3 57 -5 7 -13 27 -17 45 -9 42 -22 41 -31 -3 -3 -19 -11
-38 -16 -41 -5 -3 -6 -29 -3 -59 7 -50 6 -53 -18 -59 -31 -7 -87 -70 -87 -96
0 -13 -7 -20 -19 -20 -19 0 -19 -9 -15 -225 3 -148 1 -225 -6 -225 -7 0 -8
-45 -3 -130 4 -95 3 -130 -5 -130 -7 0 -12 -18 -12 -45 0 -25 5 -45 10 -45 12
0 13 -127 3 -272 -5 -86 -8 -98 -25 -98 -28 0 -26 -80 2 -87 19 -5 20 -14 20
-143 l0 -137 -63 -23 c-34 -12 -83 -33 -109 -46 -26 -13 -50 -24 -52 -24 -3 0
-17 21 -30 48 -58 113 -186 257 -296 332 -111 75 -255 136 -367 155 l-43 7 35
-82 c40 -94 97 -251 92 -256 -1 -2 -30 10 -62 25 -92 44 -192 72 -279 78 -75
6 -79 5 -72 -13 5 -10 21 -57 37 -103 28 -83 28 -83 6 -76 -12 4 -44 14 -72
23 -52 16 -336 24 -351 10 -4 -4 26 -62 66 -129 68 -114 71 -123 59 -147 -27
-49 -64 -79 -107 -87 -54 -9 -62 -23 -29 -51 36 -30 36 -59 2 -50 -24 6 -25 4
-25 -39 0 -43 -1 -45 -30 -45 -29 0 -30 -2 -30 -45 l0 -45 -52 0 -51 0 6 196
c3 108 8 199 11 201 3 3 17 -2 31 -11 14 -9 25 -12 25 -7 0 6 -8 15 -17 21
-15 9 -14 10 6 4 16 -4 21 -3 17 5 -4 6 -17 11 -29 11 -20 1 -20 2 -4 11 9 5
22 7 27 4 6 -3 10 -1 10 4 0 16 -32 13 -58 -5 -20 -14 -24 -14 -44 0 -26 18
-58 21 -58 5 0 -6 6 -9 13 -6 8 3 20 1 28 -4 11 -7 9 -9 -8 -9 -12 0 -25 -5
-29 -11 -4 -8 1 -9 17 -4 l24 8 -20 -23 -20 -24 25 17 c13 9 28 17 32 17 5 0
8 -90 8 -200 l0 -200 -67 -2 c-38 0 4 -5 92 -9 183 -9 10283 -7 10420 2 l90 6
-82 1 -83 2 0 315 c0 266 2 315 14 315 8 0 22 -7 30 -16 19 -18 22 -4 4 15
-11 11 -8 12 12 6 19 -5 22 -4 14 4 -6 7 -20 13 -32 14 -29 2 -16 17 16 18 24
2 25 2 4 6 -13 3 -33 -2 -46 -10 -19 -13 -25 -13 -41 -1 -10 8 -30 13 -44 13
-24 -2 -24 -2 -3 -6 24 -5 31 -23 8 -23 -8 0 -18 -5 -22 -11 -4 -8 1 -9 17 -4
22 7 23 7 9 -10 -14 -17 -13 -17 7 -7 12 7 26 12 32 12 13 0 14 -193 4 -458
l-6 -173 -56 3 c-53 3 -56 4 -65 36 -6 22 -15 32 -28 32 -12 0 -24 12 -34 35
-8 19 -19 35 -24 35 -6 0 -10 68 -10 180 0 149 2 180 14 180 8 0 21 -7 30 -15
23 -23 32 -18 10 6 -19 22 -19 22 6 14 17 -5 22 -4 15 3 -5 6 -21 12 -35 14
-23 4 -23 5 10 15 30 10 32 11 10 12 -14 1 -35 -5 -46 -13 -17 -12 -22 -12
-39 0 -10 8 -30 14 -44 13 -23 -1 -22 -2 9 -12 33 -10 33 -11 10 -15 -14 -2
-29 -8 -35 -14 -7 -7 -2 -8 15 -3 20 6 23 5 13 -6 -19 -19 -16 -33 3 -15 8 9
22 16 30 16 12 0 14 -29 14 -165 0 -152 -9 -202 -24 -140 -4 16 -13 25 -25 25
-13 0 -23 11 -31 35 -8 23 -18 35 -30 35 -12 0 -22 12 -30 36 -7 21 -21 39
-35 44 -14 5 -26 20 -30 39 -5 22 -12 31 -27 31 -14 0 -24 12 -35 40 -10 26
-22 40 -34 40 -11 0 -22 13 -29 35 -7 22 -18 35 -29 35 -12 0 -24 14 -34 40
-15 39 -17 40 -61 40 l-46 0 0 100 c0 93 1 100 20 100 15 0 20 7 20 25 l0 25
-247 -2 c-240 -3 -248 -4 -248 -23 0 -13 8 -21 23 -23 21 -3 22 -7 22 -102 l0
-99 -47 -3 c-43 -3 -47 -5 -58 -38 -8 -23 -19 -36 -33 -38 -14 -2 -23 -13 -27
-33 -4 -19 -16 -34 -30 -39 -14 -5 -28 -23 -35 -44 -8 -24 -18 -36 -30 -36
-12 0 -22 -12 -30 -35 -7 -23 -18 -35 -29 -35 -12 0 -24 -14 -33 -37 -13 -36
-15 -23 -21 197 -4 129 -10 321 -14 427 l-6 192 104 3 104 3 0 45 0 45 -102 3
-103 3 0 42 c0 24 5 48 12 55 7 7 44 12 97 12 56 0 90 5 100 13 9 8 47 22 86
32 551 145 742 841 340 1240 -162 161 -346 233 -565 222 -170 -9 -312 -64
-442 -171 -279 -231 -349 -644 -160 -954 41 -69 137 -182 154 -182 6 0 -11 24
-39 53 -141 150 -207 312 -207 512 0 367 255 663 623 723 273 45 560 -83 717
-320 197 -295 153 -685 -103 -930 -98 -93 -219 -159 -343 -187 -46 -10 -45
-11 -26 34 12 28 22 36 58 45 115 28 115 28 132 70 18 44 21 80 7 80 -5 0 -27
-6 -49 -14 -59 -21 -267 -54 -417 -65 -249 -20 -828 -11 -972 15 l-33 6 0 98
c0 95 1 99 23 102 l22 3 3 313 2 312 -35 0 -35 0 0 75 c0 43 4 75 10 75 6 0
10 9 10 19 0 11 -4 23 -10 26 -6 4 -10 53 -10 116 0 101 -1 109 -19 109 -15 0
-21 -10 -26 -42 -4 -24 -10 -47 -12 -52 -11 -17 -23 21 -23 72 0 39 -4 52 -15
52 -12 0 -15 18 -15 100 0 63 5 108 13 121 10 17 9 22 -4 32 -22 17 -142 519
-127 528 9 6 8 12 -1 23 -17 21 -24 20 -46 -4z m84 -278 c30 -125 56 -235 59
-244 4 -16 -6 -18 -118 -18 -112 0 -122 2 -118 18 2 9 29 119 58 245 30 125
57 227 60 227 3 0 29 -102 59 -228z m61 -417 l0 -106 -122 3 -123 3 -3 89 c-2
49 -1 95 2 103 4 10 35 13 126 13 l120 0 0 -105z m-308 -253 c13 -2 18 6 23
35 4 21 8 44 11 51 3 10 39 12 156 10 l153 -3 6 -42 c6 -48 12 -58 32 -50 8 3
17 27 21 58 12 86 27 43 24 -67 l-3 -99 -235 0 -235 0 -3 94 c-3 116 7 148 22
71 8 -37 17 -56 28 -58z m-1975 52 c-6 -39 -41 -84 -64 -84 -19 0 -16 -8 12
-42 30 -36 31 -48 4 -82 -27 -34 -62 -34 -88 1 -23 28 -21 54 7 86 15 17 14
21 -20 50 -37 32 -59 77 -38 77 6 0 21 -11 34 -25 30 -32 46 -32 47 3 l2 27 4
-27 c5 -31 30 -38 40 -10 5 15 52 62 62 62 2 0 1 -16 -2 -36z m2401 -286 l3
-78 34 0 35 0 0 -300 0 -300 -25 0 -25 0 0 -111 c0 -111 0 -111 -22 -105 -13
3 -31 6 -40 6 -13 0 -18 8 -18 30 0 17 -4 30 -10 30 -5 0 -10 -11 -10 -25 0
-36 -30 -33 -31 3 -2 23 -2 24 -6 5 -2 -13 -11 -23 -19 -23 -8 0 -15 10 -15
23 -1 16 -2 18 -6 5 -2 -10 -11 -18 -19 -18 -8 0 -14 8 -15 18 0 10 -3 12 -6
5 -6 -16 -30 -17 -35 -1 -3 7 -12 9 -22 5 -15 -6 -17 -13 -11 -35 5 -15 10
-102 12 -194 5 -204 23 -229 23 -32 0 104 3 135 13 132 8 -3 14 -44 17 -139
l6 -134 2 133 c2 102 5 133 15 130 8 -3 14 -43 17 -134 l6 -129 2 128 c2 98 5
128 15 125 8 -3 14 -42 17 -129 l6 -124 2 124 c2 108 4 122 17 111 12 -10 15
-37 15 -121 0 -66 4 -109 10 -109 6 0 10 32 10 77 0 73 1 76 16 55 9 -13 26
-22 40 -22 24 0 25 -2 22 -52 -3 -46 -6 -53 -25 -56 -12 -2 -25 -12 -28 -23
-6 -18 -18 -19 -228 -19 l-221 0 34 35 c30 31 35 33 42 18 5 -14 7 -12 7 8 1
15 8 32 16 39 13 11 15 7 16 -26 2 -33 3 -34 6 -9 11 90 32 104 35 23 1 -49 2
-48 7 18 3 38 3 131 0 205 l-5 134 -2 -120 c-2 -108 -4 -118 -17 -101 -11 14
-16 50 -17 120 l-2 101 -5 -100 c-7 -121 -23 -113 -32 15 l-6 85 -1 -85 -2
-86 -45 -44 -45 -44 0 202 0 202 -25 0 -25 0 0 300 0 300 35 0 35 0 0 73 c0
41 3 77 7 81 4 3 110 5 237 4 l231 -3 3 -77z m-2478 -68 c0 -5 -7 -10 -15 -10
-8 0 -22 -14 -30 -31 -15 -29 -15 -32 1 -44 29 -21 45 -8 38 30 -5 28 -3 34
16 40 33 10 45 -7 31 -46 -9 -27 -8 -34 7 -45 25 -20 40 -17 44 9 4 29 19 27
38 -6 13 -23 13 -33 -2 -86 -9 -34 -12 -61 -7 -61 4 0 13 17 18 38 11 40 41
183 41 194 0 9 44 -4 52 -16 4 -6 5 -21 2 -32 -3 -12 0 -25 6 -29 8 -5 7 -12
-5 -25 -13 -14 -14 -25 -6 -61 12 -55 32 -69 97 -69 99 0 112 6 123 62 14 65
34 102 69 126 23 17 30 18 45 8 9 -7 15 -15 12 -18 -2 -2 -7 -26 -9 -53 -3
-30 -11 -52 -20 -57 -18 -10 -22 -73 -6 -83 6 -3 10 -26 10 -50 0 -24 5 -47
10 -50 14 -9 12 -36 -2 -34 -54 7 -69 -1 -89 -46 -21 -48 -43 -58 -52 -24 -4
16 -12 20 -44 17 l-38 -3 2 69 c1 62 4 71 30 92 l28 24 -65 -3 -65 -2 -1 -63
c-1 -40 -7 -69 -16 -80 -9 -9 -13 -23 -11 -30 4 -9 -46 -12 -231 -11 -185 0
-236 3 -236 13 0 7 -7 28 -16 45 -10 21 -14 45 -11 67 10 57 2 64 -67 64 l-61
-1 28 -23 c26 -21 29 -29 30 -91 l2 -69 -61 -2 c-57 -2 -61 -1 -78 27 -11 18
-26 29 -42 30 -43 2 -47 4 -51 16 -2 6 1 14 6 18 6 3 11 26 11 50 0 24 5 47
10 50 16 10 12 73 -5 83 -10 5 -17 27 -20 56 -2 27 -6 51 -9 54 -3 3 2 11 11
18 15 10 22 9 45 -8 35 -24 55 -61 69 -126 12 -56 24 -62 125 -62 41 0 58 5
73 21 23 25 32 86 15 104 -7 7 -11 21 -9 31 2 11 6 31 9 45 4 18 14 28 29 31
22 4 25 0 36 -61 18 -96 50 -203 60 -197 5 3 6 46 3 96 -3 64 -1 90 7 90 6 0
11 5 11 11 0 6 14 29 31 50 30 38 49 49 49 29z m-2250 -117 c0 -50 2 -54 33
-67 37 -16 72 -51 82 -83 l6 -23 -140 0 -141 0 11 27 c15 39 38 63 78 80 33
14 33 15 27 60 -4 28 -1 60 6 81 l13 34 12 -28 c7 -16 12 -53 13 -81z m-1000
78 c0 -11 4 -22 9 -26 6 -3 7 -27 4 -54 l-6 -49 46 -20 c42 -19 77 -60 77 -92
0 -6 -47 -10 -135 -10 -91 0 -135 4 -135 11 0 25 36 69 73 89 39 23 39 23 34
71 -3 27 -2 51 4 54 5 4 9 15 9 26 0 10 5 19 10 19 6 0 10 -9 10 -19z m170
-296 l0 -35 -175 0 -175 0 0 35 0 35 175 0 175 0 0 -35z m988 -2 l3 -33 -175
0 -176 0 0 35 0 35 173 -2 172 -3 3 -32z m-998 -98 c0 -54 0 -55 -30 -55 -28
0 -30 2 -30 40 0 22 -4 40 -10 40 -5 0 -10 -18 -10 -40 0 -29 -4 -40 -15 -40
-11 0 -15 13 -17 48 l-2 47 -3 -47 c-3 -40 -8 -48 -24 -48 -16 0 -19 8 -21 48
l-2 47 -3 -48 c-3 -39 -7 -48 -21 -45 -11 2 -19 17 -23 43 l-6 40 -2 -42 c-1
-31 -5 -43 -16 -43 -11 0 -15 13 -17 48 l-1 47 -6 -45 c-6 -42 -8 -45 -38 -48
l-33 -3 0 55 0 56 165 0 165 0 0 -55z m988 -2 l3 -53 -35 0 c-36 0 -36 0 -38
48 l-2 47 -3 -47 c-3 -40 -8 -48 -24 -48 -16 0 -19 8 -21 48 l-2 47 -3 -47
c-3 -34 -8 -48 -19 -48 -10 0 -14 12 -14 40 0 22 -4 40 -10 40 -5 0 -10 -18
-10 -40 0 -29 -4 -40 -15 -40 -11 0 -15 13 -17 48 l-2 47 -3 -47 c-3 -40 -8
-48 -24 -48 -16 0 -19 8 -21 48 l-2 47 -3 -47 c-4 -46 -6 -48 -34 -48 -29 0
-29 1 -29 55 l0 55 163 -2 162 -3 3 -52z m2512 -153 l0 -120 -440 0 -440 0 0
120 0 120 440 0 440 0 0 -120z m-3490 60 l0 -30 -175 0 -175 0 0 30 0 30 175
0 175 0 0 -30z m990 0 l0 -30 -175 0 -175 0 0 30 0 30 175 0 175 0 0 -30z
m1600 0 c0 -20 -5 -20 -387 -18 -360 3 -388 4 -391 21 -3 16 21 17 387 17 385
0 391 0 391 -20z m1740 0 c0 -20 -5 -20 -412 -18 -384 3 -413 4 -416 21 -3 16
22 17 412 17 410 0 416 0 416 -20z m-1740 -105 l0 -75 -360 0 -360 0 0 75 0
75 360 0 360 0 0 -75z m1680 0 l0 -75 -385 0 -385 0 0 75 0 75 385 0 385 0 0
-75z m-4278 -25 l3 -80 -167 0 -168 0 0 80 0 80 164 0 164 0 4 -80z m988 0 l0
-80 -170 0 -170 0 0 64 c0 102 -11 96 176 96 l164 0 0 -80z m3540 -80 c0 -7
-483 -10 -1430 -10 -947 0 -1430 3 -1430 10 0 7 483 10 1430 10 947 0 1430 -3
1430 -10z m-4512 -49 l3 -31 -185 0 -186 0 0 28 c0 16 2 31 4 33 2 2 85 3 183
2 l178 -2 3 -30z m992 -2 l0 -29 -185 0 -185 0 0 30 0 30 178 2 c97 2 180 2
185 0 4 -2 7 -16 7 -33z m3488 14 c3 -10 -282 -13 -1402 -13 -773 0 -1406 4
-1406 8 0 5 3 12 7 15 3 4 634 6 1401 5 1106 -2 1396 -6 1400 -15z m947 -39
c119 -26 280 -43 519 -55 354 -19 798 8 1014 62 46 11 85 19 87 17 10 -9 -20
-80 -37 -89 -28 -15 -196 -46 -333 -61 -163 -18 -849 -18 -1000 0 -125 15
-252 37 -307 52 -39 11 -68 49 -68 89 0 18 3 19 27 10 15 -6 59 -17 98 -25z
m-3647 -31 l3 -43 70 0 69 0 0 45 0 45 65 0 65 0 0 -45 0 -45 70 0 70 0 0 45
0 45 65 0 65 0 0 -45 0 -45 69 0 70 0 3 43 3 42 65 0 65 0 3 -42 3 -43 70 0
69 0 0 45 0 45 65 0 65 0 0 -45 0 -45 69 0 70 0 3 43 3 42 65 0 65 0 3 -42 3
-43 70 0 69 0 0 45 0 45 65 0 65 0 0 -45 0 -45 69 0 70 0 3 43 3 42 63 3 62 3
0 -46 0 -45 75 0 75 0 0 45 0 46 63 -3 62 -3 3 -42 3 -43 70 0 69 0 0 45 0 45
65 0 65 0 0 -45 0 -45 69 0 70 0 3 43 c3 37 6 42 28 42 23 0 25 -4 28 -57 l3
-58 -1366 0 -1365 0 0 61 0 60 33 -3 c30 -3 32 -6 35 -45z m-1788 -68 l0 -85
-175 0 -175 0 0 78 c0 43 3 82 7 85 3 4 82 7 175 7 l168 0 0 -85z m980 31 c0
-29 3 -68 6 -85 l7 -31 -177 0 -176 0 0 85 0 85 170 0 170 0 0 -54z m3470 -61
c0 -13 -158 -15 -1365 -15 -1207 0 -1365 2 -1365 15 0 13 158 15 1365 15 1207
0 1365 -2 1365 -15z m1165 0 c208 -27 550 -38 800 -26 127 6 277 18 335 25 58
8 107 12 109 10 3 -2 -5 -25 -17 -49 l-22 -45 -645 0 -645 0 -25 50 c-17 34
-21 50 -13 50 7 0 63 -7 123 -15z m-416 -37 l37 -42 -99 -95 -99 -96 241 3
c170 2 241 0 241 -8 0 -8 -75 -10 -251 -9 l-252 1 -81 -81 -82 -81 -42 43 -43
43 193 182 c106 100 195 182 197 182 2 0 20 -19 40 -42z m-3050 -28 c7 -22 21
-46 31 -53 20 -12 20 -28 20 -633 0 -605 -1 -622 -19 -627 -12 -3 -24 -20 -32
-46 -16 -55 -42 -55 -58 0 -8 26 -20 43 -32 46 -18 5 -19 22 -19 625 l0 620
25 20 c14 11 25 23 25 28 0 22 21 60 33 60 8 0 19 -18 26 -40z m390 0 c7 -22
21 -46 31 -53 20 -12 20 -28 20 -633 0 -605 -1 -622 -19 -627 -12 -3 -24 -20
-32 -46 -16 -55 -42 -55 -58 0 -8 26 -20 43 -32 46 -18 5 -19 22 -19 625 l0
620 25 20 c14 11 25 23 25 28 0 22 21 60 33 60 8 0 19 -18 26 -40z m757 23
c15 -49 35 -83 49 -83 13 0 15 -73 15 -623 l0 -622 -22 -10 c-12 -6 -27 -26
-33 -45 l-12 -35 -205 -3 -205 -2 -12 41 c-8 26 -20 43 -32 46 -18 5 -19 22
-19 628 0 554 2 624 16 629 8 3 24 26 35 51 l20 45 200 0 c181 0 200 -2 205
-17z m401 -33 c13 -30 28 -50 37 -50 14 0 16 -61 16 -625 0 -605 -1 -625 -19
-625 -17 0 -26 -15 -45 -72 -3 -10 -12 -18 -21 -18 -9 0 -18 8 -21 18 -18 54
-28 71 -45 75 -18 5 -19 22 -19 624 l0 618 22 10 c13 6 27 27 36 53 7 23 19
42 26 42 7 0 22 -22 33 -50z m390 0 c13 -30 28 -50 37 -50 14 0 16 -61 16
-625 0 -605 -1 -625 -19 -625 -17 0 -26 -15 -45 -72 -3 -10 -12 -18 -21 -18
-9 0 -18 8 -21 18 -18 54 -28 71 -45 75 -18 5 -19 22 -19 624 l0 618 22 10
c13 6 27 27 36 53 7 23 19 42 26 42 7 0 22 -22 33 -50z m508 -116 l159 -166
-43 -41 -44 -40 -147 154 c-104 108 -144 156 -135 162 8 4 21 27 31 52 9 25
18 45 19 45 0 0 73 -75 160 -166z m-2505 152 c0 -1 -5 -17 -11 -35 l-11 -32
-141 3 -141 3 -13 33 -13 32 165 0 c91 0 165 -2 165 -4z m390 0 c0 -1 -5 -17
-11 -35 l-11 -32 -141 3 -141 3 -13 33 -13 32 165 0 c91 0 165 -2 165 -4z
m379 -28 c-5 -18 -9 -34 -9 -35 0 -2 -64 -3 -143 -3 l-144 0 -10 35 -11 35
163 0 164 0 -10 -32z m771 23 c0 -5 -4 -21 -10 -35 l-10 -26 -140 0 -140 0
-10 26 c-6 14 -10 30 -10 35 0 5 67 9 160 9 93 0 160 -4 160 -9z m390 0 c0 -5
-4 -21 -10 -35 l-10 -26 -140 0 -140 0 -10 26 c-6 14 -10 30 -10 35 0 5 67 9
160 9 93 0 160 -4 160 -9z m390 0 c0 -5 -4 -21 -10 -35 l-10 -26 -140 0 -140
0 -10 26 c-6 14 -10 30 -10 35 0 5 67 9 160 9 93 0 160 -4 160 -9z m-4390 -56
l0 -35 -195 0 -195 0 0 35 0 35 195 0 195 0 0 -35z m990 0 l0 -35 -197 2 -198
3 -3 33 -3 32 200 0 201 0 0 -35z m5090 -60 l0 -56 -122 3 -123 3 -3 29 c-2
16 2 40 9 53 12 22 17 23 126 23 l113 0 0 -55z m366 41 c8 -8 14 -33 14 -55
l0 -41 -125 0 -125 0 0 55 0 55 111 0 c82 0 114 -4 125 -14z m-4438 -628 l-3
-623 -97 -3 -98 -3 0 626 0 625 100 0 100 0 -2 -622z m390 0 l-3 -623 -97 -3
-98 -3 0 626 0 625 100 0 100 0 -2 -622z m390 0 l-3 -623 -97 -3 -98 -3 0 626
0 625 100 0 100 0 -2 -622z m762 -3 l0 -625 -100 0 -100 0 0 625 0 625 100 0
100 0 0 -625z m390 0 l0 -625 -100 0 -100 0 0 625 0 625 100 0 100 0 0 -625z
m390 0 l0 -625 -100 0 -100 0 0 625 0 625 100 0 100 0 0 -625z m1493 443 c4
-95 7 -257 7 -360 l0 -187 -44 -6 c-65 -10 -80 -4 -85 30 -1 17 0 180 4 363
l7 332 53 0 52 0 6 -172z m769 -185 c3 -197 4 -359 3 -361 -7 -8 -111 -12
-121 -5 -7 5 -9 121 -6 366 l4 357 58 0 57 0 5 -357z m-6612 284 c0 -35 3
-119 7 -185 l6 -122 -181 0 c-99 0 -182 3 -184 8 -2 4 -2 87 0 185 l4 177 174
0 174 0 0 -63z m990 -2 c0 -36 -2 -65 -5 -65 -2 0 -20 8 -40 17 -30 14 -35 22
-37 52 l-1 36 -4 -32 c-3 -25 -9 -33 -24 -33 -14 0 -19 8 -21 33 l-1 32 -4
-32 c-5 -40 -33 -46 -33 -8 0 14 -4 25 -10 25 -5 0 -10 -11 -10 -24 0 -13 -7
-26 -15 -30 -12 -4 -15 3 -16 32 l-2 37 -6 -40 c-4 -26 -12 -41 -23 -43 -13
-3 -18 6 -21 40 l-4 43 -2 -50 c-2 -45 -5 -52 -38 -73 -19 -12 -38 -21 -40
-18 -3 3 -2 41 2 85 l7 81 174 0 174 0 0 -65z m3488 -47 c70 -76 102 -118 102
-134 0 -17 6 -24 20 -24 16 0 20 -7 20 -34 0 -28 -10 -42 -65 -94 -35 -33 -94
-88 -130 -122 l-65 -63 0 291 c0 161 3 292 8 291 4 0 53 -50 110 -111z m2002
-8 l0 -40 -310 0 -310 0 0 40 0 40 310 0 310 0 0 -40z m335 0 l0 -35 -97 -3
-98 -3 0 41 0 41 98 -3 97 -3 0 -35z m-5864 -10 c59 -31 152 -121 204 -200
135 -205 268 -563 359 -972 4 -16 -4 -18 -54 -18 l-59 0 -6 38 c-77 486 -210
858 -362 1010 -65 65 -120 91 -194 92 -189 1 -345 -227 -474 -692 -10 -36 -22
-59 -33 -62 -73 -19 -75 -19 -69 12 14 69 103 297 167 427 137 277 274 403
426 391 28 -2 71 -14 95 -26z m4099 -39 c0 -5 -9 -11 -20 -14 -11 -3 -20 -13
-20 -22 0 -9 9 -19 20 -22 19 -5 20 -14 20 -141 l0 -136 -46 44 c-71 69 -104
118 -104 157 0 26 4 33 20 33 12 0 20 7 20 17 0 23 69 93 92 93 10 0 18 -4 18
-9z m656 -513 c-4 -282 -9 -541 -12 -575 l-6 -63 -49 0 -49 0 0 195 c0 167 2
195 15 195 9 0 15 9 15 25 0 16 -6 25 -15 25 -8 0 -15 5 -15 10 0 6 7 10 15
10 9 0 15 9 15 25 0 16 -6 25 -15 25 -13 0 -15 39 -15 290 0 251 2 290 15 290
22 0 19 47 -2 53 -10 3 11 5 46 6 l64 1 -7 -512z m771 310 c-4 -112 -10 -355
-14 -540 -6 -330 -7 -337 -27 -340 -13 -2 -24 -14 -30 -35 l-9 -33 -257 0
-257 0 -6 158 c-4 86 -10 345 -13 575 l-7 417 313 0 313 0 -6 -202z m-5667 42
c6 0 10 32 10 70 0 56 3 70 15 70 12 0 15 -16 17 -72 l2 -73 3 73 c2 39 7 72
11 72 22 -1 31 -22 35 -80 l3 -65 2 68 2 68 40 -22 40 -23 0 -63 0 -63 -180 0
-180 0 0 33 c0 25 9 42 39 71 l40 39 4 -54 3 -54 2 58 c1 31 4 57 6 57 2 0 11
3 20 6 12 5 16 -6 19 -58 l3 -63 2 67 c1 43 6 68 15 71 9 3 13 -15 15 -65 2
-37 7 -68 12 -68z m4770 -190 l0 -290 -260 0 -260 0 0 37 0 37 35 -34 35 -34
29 28 c21 20 30 24 34 14 4 -9 6 -8 6 3 1 9 7 22 15 28 12 10 15 7 19 -16 2
-15 4 71 3 192 0 209 -1 211 -3 41 -3 -156 -5 -177 -18 -166 -12 10 -15 46
-17 179 l-2 166 -3 -159 c-3 -138 -5 -156 -18 -146 -12 10 -15 44 -17 159 l-2
146 -6 -139 -5 -140 -42 51 -43 51 0 141 0 141 260 0 260 0 0 -290z m-4488
156 c121 -176 209 -455 293 -928 l5 -28 -184 0 -183 0 -6 293 c-4 160 -7 353
-7 428 0 128 1 137 20 142 16 4 20 14 20 45 0 34 -3 41 -22 44 -20 3 -23 10
-26 58 l-3 55 27 -25 c14 -14 44 -51 66 -84z m-2286 33 c167 -51 341 -166 449
-296 56 -68 126 -181 129 -209 0 -7 -87 -88 -194 -179 -146 -123 -202 -165
-222 -165 -15 0 -29 3 -31 8 -3 4 -12 59 -22 122 -28 199 -116 502 -194 675
l-30 65 24 0 c12 0 54 -9 91 -21z m5932 -69 c-2 -6 -86 -88 -188 -184 l-185
-174 -3 77 -3 76 153 147 153 147 38 -40 c21 -22 37 -44 35 -49z m296 -113
c106 -112 176 -193 173 -201 -3 -8 -21 -26 -40 -41 l-35 -26 -119 123 c-65 68
-148 153 -183 191 l-64 67 39 40 c22 22 42 39 45 38 4 -2 87 -88 184 -191z
m-4984 103 l0 -30 -225 0 -225 0 0 30 0 30 225 0 225 0 0 -30z m551 -47 c21
-6 24 -40 13 -127 l-7 -46 -73 0 c-44 0 -74 4 -74 10 0 18 50 132 83 190 l32
55 3 -39 c2 -28 9 -40 23 -43z m429 47 l0 -30 -220 0 -220 0 0 30 0 30 220 0
220 0 0 -30z m3914 -325 c10 -82 20 -160 23 -172 5 -22 2 -23 -58 -24 -35 -1
-56 -3 -46 -6 13 -3 17 -11 14 -24 -5 -17 1 -19 44 -19 31 0 51 -5 54 -12 2
-7 11 -69 20 -138 9 -69 18 -140 21 -157 l6 -33 -86 0 -86 0 0 104 c0 98 -2
106 -26 135 -34 41 -92 44 -129 6 -24 -23 -25 -31 -25 -135 l0 -110 -85 0 -86
0 6 33 c3 17 16 122 30 232 35 275 20 245 118 247 76 2 77 2 20 5 -35 2 -63 8
-63 13 0 6 8 10 17 10 27 0 8 11 -23 13 -32 3 -32 -6 -14 130 l12 87 77 71 76
70 85 -88 86 -88 18 -150z m2468 178 l3 -108 47 -3 c41 -3 48 -6 56 -32 9 -26
8 -29 -11 -33 -12 -2 -3 -5 20 -6 36 -1 42 -5 52 -31 8 -25 7 -30 -5 -30 -8 0
-12 -4 -9 -10 3 -5 20 -10 36 -10 22 0 32 -6 39 -26 13 -33 13 -32 -12 -37
-13 -2 -2 -5 25 -6 26 0 47 -4 47 -8 0 -5 3 -18 6 -30 4 -15 1 -22 -13 -26
-14 -4 -12 -5 7 -7 14 -1 31 -3 38 -4 34 -3 43 -63 10 -69 -13 -2 -2 -5 24 -6
41 -1 47 -4 56 -30 9 -27 8 -30 -11 -34 -12 -2 -3 -5 20 -6 37 -1 42 -4 52
-32 14 -40 14 -37 -6 -42 -10 -3 -1 -5 20 -6 31 -1 39 -6 47 -27 13 -33 13
-32 -7 -37 -10 -3 1 -5 25 -6 23 0 42 -4 42 -8 0 -5 3 -18 6 -30 l6 -23 -311
0 c-201 0 -311 4 -311 10 0 6 -66 10 -179 10 -109 0 -182 -4 -186 -10 -4 -6
-82 -10 -201 -10 l-194 0 0 140 0 140 33 1 c23 1 26 3 10 6 -27 5 -26 2 -12
42 7 21 16 30 25 27 8 -3 24 -1 36 4 17 6 18 9 6 9 -14 1 -15 5 -7 31 10 27
16 30 52 31 23 1 34 3 25 6 -37 9 -17 63 22 63 29 0 49 15 29 22 -6 2 -8 14
-4 31 6 24 12 27 49 28 22 1 33 3 23 6 -14 4 -17 11 -13 26 3 12 6 25 6 30 0
4 23 7 50 7 l50 0 0 110 0 110 195 0 194 0 3 -107z m-7400 10 l3 -88 167 -3
c143 -2 166 -5 162 -17 -4 -8 -17 -15 -31 -15 -25 0 -25 -2 -21 -50 l5 -50
-138 0 -139 0 0 -81 0 -81 -32 7 c-18 4 -37 10 -41 15 -4 4 4 34 18 66 49 110
49 102 5 114 l-40 11 0 119 c0 73 -4 120 -10 120 -6 0 -10 -47 -10 -120 0
-100 -2 -120 -15 -120 -12 0 -15 22 -17 128 l-2 127 -3 -122 c-3 -115 -5 -123
-23 -123 -19 0 -20 8 -22 123 l-2 122 -3 -122 c-3 -114 -5 -123 -23 -123 -18
0 -20 9 -23 118 l-3 117 -2 -122 c-2 -102 -5 -123 -17 -123 -12 0 -15 22 -17
128 l-2 127 -3 -127 c-2 -71 -7 -128 -11 -128 -4 0 -24 -4 -44 -9 l-38 -9 0
139 0 139 185 0 184 0 3 -87z m988 -110 c0 -109 3 -303 7 -430 l6 -233 -141 0
c-131 0 -142 1 -142 18 0 24 -25 47 -73 67 l-37 15 0 225 0 225 -105 0 c-63 0
-105 4 -105 10 0 6 9 10 21 10 19 0 21 5 17 53 l-3 52 90 5 90 5 3 88 3 87
184 0 185 0 0 -197z m-2425 100 c33 -8 99 -33 147 -55 l87 -41 17 -56 c46
-157 94 -398 94 -471 0 -26 -33 -6 -46 28 -26 66 -25 66 -138 83 l-106 16 -21
-34 c-27 -44 -46 -42 -55 5 -18 107 -107 424 -152 541 -4 11 6 12 54 7 32 -4
86 -14 119 -23z m5960 -399 c-25 -192 -45 -352 -45 -356 0 -5 -14 -8 -30 -8
-20 0 -33 6 -36 18 -19 57 -28 72 -45 72 -18 0 -19 11 -19 224 l0 224 108 103
c70 67 108 97 110 87 2 -9 -17 -172 -43 -364z m515 193 c0 -36 -4 -46 -20 -50
-11 -3 -20 -13 -20 -22 0 -9 9 -19 20 -22 11 -3 20 -9 20 -13 0 -4 -9 -10 -20
-13 -11 -3 -20 -13 -20 -22 0 -9 9 -19 20 -22 19 -5 20 -14 20 -199 0 -123 -4
-194 -10 -194 -5 0 -10 4 -10 10 0 12 -78 618 -86 670 l-6 35 56 -57 c51 -51
56 -60 56 -101z m-6730 62 c25 -5 65 -16 88 -25 l44 -16 -35 -37 c-44 -46 -86
-109 -126 -188 -49 -99 -58 -94 -171 99 -52 89 -96 165 -98 169 -8 19 205 17
298 -2z m7540 -325 l0 -294 -75 0 -75 0 0 295 0 294 68 3 c37 2 70 2 75 0 4
-2 7 -136 7 -298z m764 16 c4 -160 4 -295 1 -300 -8 -12 -142 -13 -149 -2 -3
5 -2 138 1 295 l6 286 61 4 c34 2 64 4 67 5 3 1 9 -129 13 -288z m-6644 264
c8 -8 1 -32 -24 -87 l-34 -76 -58 6 c-64 7 -64 7 -11 -58 l28 -37 -37 -86 -37
-86 -46 0 c-40 0 -50 4 -76 36 l-30 35 -104 -10 c-160 -17 -151 -19 -151 37 0
27 3 90 6 140 l7 91 80 36 c132 60 203 75 349 72 75 -1 131 -6 138 -13z
m-1486 -132 c15 -57 33 -135 40 -173 13 -65 13 -69 -5 -69 -12 0 -21 10 -25
28 -3 15 -8 35 -10 44 -5 17 -51 30 -151 44 l-53 7 37 69 c39 75 121 174 133
161 4 -4 20 -54 34 -111z m1796 92 c0 -3 -12 -43 -26 -89 l-26 -82 -57 -18
-58 -17 -47 27 -46 27 0 79 0 79 130 0 c72 0 130 -3 130 -6z m320 -67 l0 -74
-53 9 c-32 6 -80 6 -120 0 -47 -6 -67 -5 -67 2 0 16 27 113 34 125 5 7 46 11
107 11 l99 0 0 -73z m4968 -14 c3 -10 -53 -13 -257 -13 -144 0 -261 4 -261 8
0 5 3 12 7 16 4 3 119 5 257 4 189 -2 250 -6 254 -15z m-6193 -240 l-7 -83
-186 0 c-113 0 -182 4 -176 9 5 5 90 77 189 160 l180 152 3 -78 c2 -43 0 -115
-3 -160z m538 183 c80 -16 166 -51 174 -72 6 -17 -59 -186 -75 -192 -6 -2 -24
18 -39 44 -16 26 -56 89 -89 141 -34 51 -58 93 -54 93 5 0 42 -6 83 -14z m655
-16 c-1 -5 -73 -75 -158 -154 -97 -92 -163 -145 -176 -146 -17 0 -24 9 -33 44
l-11 44 -65 7 c-74 8 -73 6 -31 95 20 42 25 46 96 68 41 13 102 29 135 37 71
15 248 20 243 5z m5002 -185 l0 -195 -260 0 -260 0 0 195 0 195 260 0 260 0 0
-195z m-4977 -28 l-8 -46 -62 36 c-58 32 -63 38 -63 68 0 29 10 42 68 94 l67
61 3 -84 c1 -46 -1 -105 -5 -129z m-2333 -32 l0 -135 -45 0 -45 0 0 115 c0
133 8 155 57 155 l33 0 0 -135z m110 0 l0 -135 -50 0 -50 0 0 135 0 135 50 0
50 0 0 -135z m98 -2 l3 -133 -46 0 -45 0 0 136 0 135 43 -3 42 -3 3 -132z
m6317 121 c32 -12 45 -59 45 -159 l0 -95 -80 0 -80 0 0 105 c0 99 2 107 25
130 24 24 57 31 90 19z m-6126 -45 l31 -11 0 -99 0 -99 -50 0 -50 0 0 94 c0
132 4 138 69 115z m-609 -104 l0 -105 -50 0 -50 0 0 40 c0 22 5 40 10 40 6 0
10 18 10 40 0 38 1 40 25 34 23 -6 25 -3 25 25 0 21 5 31 15 31 12 0 15 -18
15 -105z m100 0 l0 -105 -45 0 -45 0 0 105 0 105 45 0 45 0 0 -105z m1507 88
c42 -55 47 -53 -117 -53 l-150 0 0 24 c0 22 4 23 118 33 64 5 121 10 126 11 5
1 15 -6 23 -15z m-1108 -9 l31 -6 0 -89 0 -89 -45 0 -45 0 0 95 c0 103 -1 101
59 89z m204 -14 l37 -14 0 -78 0 -78 -45 0 -45 0 0 96 c0 53 3 94 8 92 4 -2
24 -10 45 -18z m3313 -125 c7 -19 14 -37 14 -40 0 -3 -74 -5 -165 -5 -91 0
-165 2 -165 5 0 3 7 21 14 40 l15 35 136 0 136 0 15 -35z m390 0 c7 -19 14
-37 14 -40 0 -3 -74 -5 -165 -5 -91 0 -165 2 -165 5 0 3 7 21 14 40 l15 35
136 0 136 0 15 -35z m390 0 c7 -19 14 -37 14 -40 0 -3 -74 -5 -165 -5 -91 0
-165 2 -165 5 0 3 7 21 14 40 l15 35 136 0 136 0 15 -35z m762 10 c25 -55 25
-55 -148 -55 -88 0 -160 4 -160 9 0 4 5 22 11 40 l11 31 137 0 138 0 11 -25z
m390 0 c25 -55 25 -55 -148 -55 -173 0 -173 0 -148 55 l11 25 137 0 137 0 11
-25z m390 0 c25 -55 25 -55 -148 -55 -173 0 -173 0 -148 55 l11 25 137 0 137
0 11 -25z"/>
<path d="M7477 3033 c-4 -3 -7 -125 -7 -270 l0 -263 280 0 280 0 -2 268 -3
267 -271 3 c-149 1 -273 -1 -277 -5z m533 -268 l0 -255 -265 0 -265 0 0 255 0
255 265 0 265 0 0 -255z"/>
<path d="M7527 2984 c-4 -4 -7 -103 -7 -221 l0 -213 230 0 230 0 -2 218 -3
217 -221 3 c-121 1 -223 -1 -227 -4z m433 -214 l0 -210 -215 0 -215 0 0 203
c0 112 3 207 7 210 3 4 100 7 215 7 l208 0 0 -210z"/>
<path d="M7675 2936 c-82 -37 -128 -131 -105 -215 29 -107 147 -168 248 -126
75 32 115 90 115 170 0 107 -80 186 -186 185 -23 -1 -55 -7 -72 -14z m155 -16
c51 -26 82 -72 88 -131 6 -66 -2 -93 -44 -139 -108 -119 -297 -41 -296 122 1
126 137 207 252 148z"/>
<path d="M5070 2490 l0 -90 410 0 410 0 0 90 0 90 -410 0 -410 0 0 -90z m808
-2 l3 -78 -401 0 -400 0 0 80 0 80 398 -2 397 -3 3 -77z"/>
<path d="M4297 1953 c-12 -11 -8 -1121 3 -1128 7 -4 10 187 10 564 0 314 -1
571 -3 571 -2 0 -7 -3 -10 -7z"/>
<path d="M4687 1953 c-12 -11 -8 -1123 3 -1123 7 0 10 195 10 565 0 311 -1
565 -3 565 -2 0 -7 -3 -10 -7z"/>
<path d="M5070 1390 c0 -367 3 -560 10 -560 7 0 10 193 10 560 0 367 -3 560
-10 560 -7 0 -10 -193 -10 -560z"/>
<path d="M1158 443 c453 -2 1191 -2 1640 0 449 1 79 2 -823 2 -902 0 -1270 -1
-817 -2z"/>
<path d="M6163 443 c268 -2 706 -2 975 0 268 1 48 2 -488 2 -536 0 -756 -1
-487 -2z"/>
<path d="M3482 323 c207 -2 549 -2 760 0 211 1 41 2 -377 2 -418 0 -590 -1
-383 -2z"/>
<path d="M6967 323 c314 -2 832 -2 1150 0 318 1 61 2 -572 2 -632 0 -893 -1
-578 -2z"/>
</g>
</svg>
